# Blender 3.3.1
# www.blender.org
mtllib arm.mtl
o arm
v 0.000000 -0.300000 -0.050000
v -0.050000 -0.300000 0.000000
v 0.050000 -0.300000 0.000000
v 0.000000 -0.300000 0.050000
v 0.000000 -0.100000 0.000000
v 0.000000 -0.600000 0.000000
vn -0.6963 0.1741 0.6963
vn 0.6963 0.1741 -0.6963
vn 0.6963 0.1741 0.6963
vn -0.6963 0.1741 -0.6963
vn -0.7022 -0.1170 0.7022
vn 0.7022 -0.1170 -0.7022
vn 0.7022 -0.1170 0.7022
vn -0.7022 -0.1170 -0.7022
vt 0.695052 0.192063
vt 0.982414 0.708577
vt 0.982134 0.155928
vt 0.847894 0.750381
vt 0.838593 0.155928
vt 0.711291 0.713854
vt 0.838593 0.192063
vt 0.847894 0.679464
vt 0.870098 0.014050
vt 0.726557 0.014050
vt 0.741272 0.544443
vt 0.857651 0.544443
vt 0.982134 0.459084
vt 0.838593 0.459084
vt 0.847894 0.967970
vt 0.982414 0.945911
s 0
usemtl マテリアル
f 2/3/1 4/7/1 5/9/1
f 3/5/2 1/1/2 5/10/2
f 4/8/3 3/6/3 5/11/3
f 1/2/4 2/4/4 5/12/4
f 2/3/5 6/13/5 4/7/5
f 3/5/6 6/14/6 1/1/6
f 4/8/7 6/15/7 3/6/7
f 1/2/8 6/16/8 2/4/8
