# Blender 3.3.1
# www.blender.org
mtllib bullet.mtl
o 平面
v 0.000000 -0.196827 -0.501357
v -0.196827 0.000000 -0.501357
v 0.196827 0.000000 -0.501357
v 0.000000 0.196827 -0.501357
v 0.000000 -0.000000 1.014130
v 0.017893 0.000000 0.876358
v 0.028952 -0.021035 0.738587
v 0.016588 -0.051053 0.600815
v -0.022117 -0.068070 0.463044
v -0.072380 -0.052587 0.325272
v -0.107360 -0.000000 0.187501
v -0.101332 0.073622 0.049729
v -0.044235 0.136141 -0.088042
v 0.049764 0.153159 -0.225814
v 0.144761 0.105175 -0.363585
v -0.017893 0.000000 0.876358
v -0.028952 0.021035 0.738587
v -0.016588 0.051053 0.600815
v 0.022117 0.068070 0.463044
v 0.072380 0.052587 0.325272
v 0.107360 0.000000 0.187501
v 0.101332 -0.073622 0.049729
v 0.044235 -0.136141 -0.088042
v -0.049764 -0.153159 -0.225814
v -0.144761 -0.105175 -0.363585
v 0.105175 -0.144761 -0.363585
v 0.153159 -0.049764 -0.225814
v 0.136141 0.044235 -0.088042
v 0.073622 0.101332 0.049729
v 0.000000 0.107360 0.187501
v -0.052587 0.072380 0.325272
v -0.068071 0.022117 0.463044
v -0.051053 -0.016588 0.600815
v -0.021035 -0.028952 0.738587
v 0.000000 -0.017893 0.876358
v -0.105175 0.144761 -0.363585
v -0.153159 0.049764 -0.225814
v -0.136141 -0.044235 -0.088042
v -0.073622 -0.101332 0.049729
v 0.000000 -0.107360 0.187501
v 0.052587 -0.072380 0.325272
v 0.068071 -0.022117 0.463044
v 0.051053 0.016588 0.600815
v 0.021035 0.028952 0.738587
v 0.000000 0.017893 0.876358
v -0.139170 0.139170 -0.501357
v -0.176721 0.027990 -0.363585
v -0.143480 -0.073107 -0.225814
v -0.064984 -0.127538 -0.088042
v 0.019593 -0.123705 0.049729
v 0.075911 -0.075911 0.187501
v 0.088361 -0.013995 0.325272
v 0.063769 0.032492 0.463044
v 0.024369 0.047827 0.600815
v -0.005598 0.035344 0.738587
v -0.012652 0.012652 0.876358
v -0.139170 -0.139170 -0.501357
v -0.027990 -0.176721 -0.363585
v 0.073107 -0.143480 -0.225814
v 0.127538 -0.064984 -0.088042
v 0.123705 0.019593 0.049729
v 0.075911 0.075911 0.187501
v 0.013995 0.088361 0.325272
v -0.032492 0.063769 0.463044
v -0.047827 0.024369 0.600815
v -0.035344 -0.005598 0.738587
v -0.012652 -0.012652 0.876358
v 0.139170 0.139170 -0.501357
v 0.027990 0.176721 -0.363585
v -0.073107 0.143480 -0.225814
v -0.127538 0.064984 -0.088042
v -0.123705 -0.019593 0.049729
v -0.075911 -0.075911 0.187501
v -0.013995 -0.088361 0.325272
v 0.032492 -0.063769 0.463044
v 0.047827 -0.024369 0.600815
v 0.035344 0.005598 0.738587
v 0.012652 0.012652 0.876358
v 0.139170 -0.139170 -0.501357
v 0.176721 -0.027990 -0.363585
v 0.143480 0.073107 -0.225814
v 0.064984 0.127538 -0.088042
v -0.019593 0.123705 0.049729
v -0.075911 0.075911 0.187501
v -0.088361 0.013995 0.325272
v -0.063769 -0.032492 0.463044
v -0.024369 -0.047827 0.600815
v 0.005598 -0.035344 0.738587
v 0.012652 -0.012652 0.876358
v 0.000000 0.000000 -0.858346
vn 0.3800 0.9173 0.1191
vn -0.3800 -0.9173 0.1191
vn -0.9173 0.3800 0.1191
vn 0.9173 -0.3800 0.1191
vn 0.8856 0.2126 -0.4129
vn 0.6028 0.7057 -0.3724
vn 0.0741 0.9412 -0.3296
vn -0.5008 0.8174 -0.2847
vn -0.8973 0.3718 -0.2378
vn -0.9548 -0.2292 -0.1893
vn -0.6432 -0.7530 -0.1393
vn -0.0782 -0.9930 -0.0882
vn 0.5221 -0.8521 -0.0364
vn 0.9237 -0.3827 0.0157
vn -0.8856 -0.2126 -0.4129
vn -0.6028 -0.7057 -0.3724
vn -0.0741 -0.9412 -0.3296
vn 0.5008 -0.8174 -0.2847
vn 0.8973 -0.3718 -0.2378
vn 0.9548 0.2292 -0.1893
vn 0.6432 0.7530 -0.1393
vn 0.0782 0.9930 -0.0882
vn -0.5221 0.8521 -0.0364
vn -0.9237 0.3827 0.0157
vn 0.2126 -0.8856 -0.4129
vn 0.7057 -0.6028 -0.3724
vn 0.9412 -0.0741 -0.3296
vn 0.8174 0.5008 -0.2847
vn 0.3718 0.8973 -0.2378
vn -0.2292 0.9548 -0.1893
vn -0.7530 0.6432 -0.1393
vn -0.9930 0.0782 -0.0882
vn -0.8521 -0.5221 -0.0364
vn -0.3827 -0.9237 0.0157
vn -0.2126 0.8856 -0.4129
vn -0.7057 0.6028 -0.3724
vn -0.9412 0.0741 -0.3296
vn -0.8174 -0.5008 -0.2847
vn -0.3718 -0.8973 -0.2378
vn 0.2292 -0.9548 -0.1893
vn 0.7530 -0.6432 -0.1393
vn 0.9930 -0.0782 -0.0882
vn 0.8521 0.5221 -0.0364
vn 0.3827 0.9237 0.0157
vn -0.3827 0.9237 0.0157
vn 0.2332 0.9717 -0.0364
vn 0.7574 0.6470 -0.0882
vn 0.9872 0.0778 -0.1393
vn 0.8373 -0.5130 -0.1893
vn 0.3718 -0.8973 -0.2379
vn -0.2237 -0.9321 -0.2848
vn -0.7178 -0.6132 -0.3297
vn -0.9252 -0.0729 -0.3725
vn -0.7766 0.4758 -0.4130
vn -0.3800 0.9173 0.1191
vn -0.9237 -0.3827 0.0157
vn -0.9717 0.2332 -0.0364
vn -0.6470 0.7574 -0.0882
vn -0.0778 0.9872 -0.1393
vn 0.5130 0.8373 -0.1893
vn 0.8973 0.3718 -0.2379
vn 0.9321 -0.2237 -0.2848
vn 0.6132 -0.7178 -0.3297
vn 0.0729 -0.9252 -0.3725
vn -0.4758 -0.7766 -0.4130
vn -0.9173 -0.3800 0.1191
vn 0.9237 0.3827 0.0157
vn 0.9717 -0.2332 -0.0364
vn 0.6470 -0.7574 -0.0882
vn 0.0778 -0.9872 -0.1393
vn -0.5130 -0.8373 -0.1893
vn -0.8973 -0.3718 -0.2379
vn -0.9321 0.2237 -0.2848
vn -0.6132 0.7178 -0.3297
vn -0.0729 0.9252 -0.3725
vn 0.4758 0.7766 -0.4130
vn 0.9173 0.3800 0.1191
vn 0.3827 -0.9237 0.0157
vn -0.2332 -0.9717 -0.0364
vn -0.7574 -0.6470 -0.0882
vn -0.9872 -0.0778 -0.1393
vn -0.8373 0.5130 -0.1893
vn -0.3718 0.8973 -0.2379
vn 0.2237 0.9321 -0.2848
vn 0.7178 0.6132 -0.3297
vn 0.9252 0.0729 -0.3725
vn 0.7766 -0.4758 -0.4130
vn 0.3800 -0.9173 0.1191
vn 0.8232 0.3410 -0.4539
vn -0.8232 -0.3410 -0.4539
vn -0.3410 -0.8232 -0.4539
vn 0.8232 -0.3410 -0.4539
vn -0.3410 0.8232 -0.4539
vn 0.3410 -0.8232 -0.4539
vn -0.8232 0.3410 -0.4539
vn 0.3410 0.8232 -0.4539
vn 0.7777 -0.3222 0.5398
vn 0.8378 0.2011 0.5076
vn 0.5722 0.6699 0.4731
vn 0.0707 0.8970 0.4363
vn -0.4795 0.7825 0.3972
vn -0.8634 0.3577 0.3558
vn -0.9238 -0.2217 0.3121
vn -0.6260 -0.7329 0.2664
vn -0.0766 -0.9728 0.2188
vn 0.5149 -0.8403 0.1696
vn -0.7777 0.3222 0.5398
vn -0.8378 -0.2011 0.5076
vn -0.5722 -0.6699 0.4731
vn -0.0707 -0.8970 0.4363
vn 0.4795 -0.7825 0.3972
vn 0.8634 -0.3577 0.3558
vn 0.9238 0.2217 0.3121
vn 0.6260 0.7329 0.2664
vn 0.0766 0.9728 0.2188
vn -0.5149 0.8403 0.1696
vn -0.3222 -0.7777 0.5398
vn 0.2011 -0.8378 0.5076
vn 0.6699 -0.5722 0.4731
vn 0.8970 -0.0707 0.4363
vn 0.7825 0.4795 0.3972
vn 0.3577 0.8634 0.3558
vn -0.2217 0.9238 0.3121
vn -0.7329 0.6260 0.2664
vn -0.9728 0.0766 0.2188
vn -0.8403 -0.5149 0.1696
vn 0.3222 0.7777 0.5398
vn -0.2011 0.8378 0.5076
vn -0.6699 0.5722 0.4731
vn -0.8970 0.0707 0.4363
vn -0.7825 -0.4795 0.3972
vn -0.3577 -0.8634 0.3558
vn 0.2217 -0.9238 0.3121
vn 0.7329 -0.6260 0.2664
vn 0.9728 -0.0766 0.2188
vn 0.8403 0.5149 0.1696
vn 0.2300 0.9583 0.1696
vn 0.7419 0.6338 0.2188
vn 0.9609 0.0757 0.2664
vn 0.8101 -0.4963 0.3121
vn 0.3577 -0.8634 0.3557
vn -0.2142 -0.8924 0.3971
vn -0.6842 -0.5844 0.4363
vn -0.8783 -0.0692 0.4731
vn -0.7347 0.4501 0.5076
vn -0.3222 0.7777 0.5398
vn -0.9583 0.2300 0.1696
vn -0.6338 0.7419 0.2188
vn -0.0757 0.9609 0.2664
vn 0.4963 0.8101 0.3121
vn 0.8634 0.3577 0.3557
vn 0.8924 -0.2142 0.3971
vn 0.5844 -0.6842 0.4363
vn 0.0692 -0.8783 0.4731
vn -0.4501 -0.7347 0.5076
vn -0.7777 -0.3222 0.5398
vn 0.9583 -0.2300 0.1696
vn 0.6338 -0.7419 0.2188
vn 0.0757 -0.9609 0.2664
vn -0.4963 -0.8101 0.3121
vn -0.8634 -0.3577 0.3557
vn -0.8924 0.2142 0.3971
vn -0.5844 0.6842 0.4363
vn -0.0692 0.8783 0.4731
vn 0.4501 0.7347 0.5076
vn 0.7777 0.3222 0.5398
vn -0.2300 -0.9583 0.1696
vn -0.7419 -0.6338 0.2188
vn -0.9609 -0.0757 0.2664
vn -0.8101 0.4963 0.3121
vn -0.3577 0.8634 0.3557
vn 0.2142 0.8924 0.3971
vn 0.6842 0.5844 0.4363
vn 0.8783 0.0692 0.4731
vn 0.7347 -0.4501 0.5076
vn 0.3222 -0.7777 0.5398
vt 0.524027 0.793860
vt 0.754638 0.799323
vt 0.299342 0.761820
vt 0.087534 0.704560
vt 0.983764 0.778013
vt 0.660033 0.000119
vt 0.659905 0.000067
vt 0.576836 0.043164
vt 0.501940 0.092813
vt 0.435993 0.148632
vt 0.379702 0.210213
vt 0.333708 0.277090
vt 0.298573 0.348768
vt 0.274768 0.424736
vt 0.262671 0.504488
vt 0.262581 0.587537
vt 0.274731 0.673438
vt 0.608621 0.060666
vt 0.568608 0.125211
vt 0.540245 0.193159
vt 0.523786 0.263974
vt 0.519433 0.337134
vt 0.527333 0.412138
vt 0.547598 0.488518
vt 0.580330 0.565836
vt 0.625636 0.643678
vt 0.683663 0.721644
vt 0.475579 0.709500
vt 0.440024 0.626304
vt 0.417105 0.544628
vt 0.406625 0.464869
vt 0.408397 0.387464
vt 0.422206 0.312884
vt 0.447786 0.241628
vt 0.484801 0.174210
vt 0.532837 0.111147
vt 0.591406 0.052936
vt 0.087029 0.614763
vt 0.892633 0.709426
vt 0.098483 0.528587
vt 0.813855 0.639055
vt 0.121664 0.446577
vt 0.747421 0.567408
vt 0.156176 0.369274
vt 0.693321 0.494917
vt 0.201504 0.297208
vt 0.651551 0.421986
vt 0.257019 0.230890
vt 0.622118 0.349027
vt 0.322001 0.170793
vt 0.605033 0.276473
vt 0.395646 0.117341
vt 0.600301 0.204788
vt 0.477097 0.070891
vt 0.607908 0.134473
vt 0.627821 0.066056
vt 0.565472 0.031724
vt 0.869861 0.791973
vt 0.788432 0.718566
vt 0.719769 0.644124
vt 0.663705 0.569098
vt 0.620145 0.493904
vt 0.589028 0.418950
vt 0.570305 0.344662
vt 0.563928 0.271492
vt 0.569830 0.199922
vt 0.587907 0.130468
vt 0.618018 0.063669
vt 0.639050 0.799952
vt 0.579111 0.718612
vt 0.532153 0.637720
vt 0.497922 0.557655
vt 0.476241 0.478812
vt 0.466961 0.401612
vt 0.469928 0.326510
vt 0.484959 0.253990
vt 0.511815 0.184561
vt 0.550194 0.118750
vt 0.599722 0.057077
vt 0.191422 0.736211
vt 0.178902 0.646820
vt 0.178564 0.560495
vt 0.190212 0.477669
vt 0.213562 0.398836
vt 0.248223 0.324510
vt 0.293703 0.255207
vt 0.349408 0.191426
vt 0.414658 0.133635
vt 0.488696 0.082252
vt 0.570723 0.037627
vt 0.410497 0.781102
vt 0.373865 0.694394
vt 0.349945 0.609530
vt 0.338491 0.526860
vt 0.339292 0.446799
vt 0.352114 0.369804
vt 0.376669 0.296366
vt 0.412595 0.226994
vt 0.459448 0.162198
vt 0.516701 0.102474
vt 0.583753 0.048284
vt 0.140874 0.936084
vt 0.699403 1.000000
vt 0.556691 0.996290
vt 0.276253 0.964143
vt 0.983764 0.982438
vt 0.415195 0.984276
vt 0.842248 0.995378
vt 0.010340 0.900470
s 0
usemtl マテリアル
f 78/90/1 45/57/1 5/7/1
f 67/79/2 35/37/2 5/7/2
f 56/68/3 16/18/3 5/7/3
f 89/101/4 6/8/4 5/7/4
f 79/91/5 15/17/5 80/92/5
f 80/92/6 14/16/6 81/93/6
f 81/93/7 13/15/7 82/94/7
f 82/94/8 12/14/8 83/95/8
f 83/95/9 11/13/9 84/96/9
f 84/96/10 10/12/10 85/97/10
f 85/97/11 9/11/11 86/98/11
f 86/98/12 8/10/12 87/99/12
f 87/99/13 7/9/13 88/100/13
f 88/100/14 6/8/14 89/101/14
f 46/58/15 25/27/15 47/59/15
f 47/59/16 24/26/16 48/60/16
f 48/60/17 23/25/17 49/61/17
f 49/61/18 22/24/18 50/62/18
f 50/62/19 21/23/19 51/63/19
f 51/63/20 20/22/20 52/64/20
f 52/64/21 19/21/21 53/65/21
f 53/65/22 18/20/22 54/66/22
f 54/66/23 17/19/23 55/67/23
f 55/67/24 16/18/24 56/68/24
f 57/69/25 26/28/25 58/70/25
f 58/70/26 27/29/26 59/71/26
f 59/71/27 28/30/27 60/72/27
f 60/72/28 29/31/28 61/73/28
f 61/73/29 30/32/29 62/74/29
f 62/74/30 31/33/30 63/75/30
f 63/75/31 32/34/31 64/76/31
f 64/76/32 33/35/32 65/77/32
f 65/77/33 34/36/33 66/78/33
f 66/78/34 35/37/34 67/79/34
f 68/80/35 36/38/35 69/81/35
f 69/81/36 37/40/36 70/82/36
f 70/82/37 38/42/37 71/83/37
f 71/83/38 39/44/38 72/84/38
f 72/84/39 40/46/39 73/85/39
f 73/85/40 41/48/40 74/86/40
f 74/86/41 42/50/41 75/87/41
f 75/87/42 43/52/42 76/88/42
f 76/88/43 44/54/43 77/89/43
f 77/89/44 45/57/44 78/90/44
f 44/55/45 56/68/45 45/56/45
f 43/53/46 55/67/46 44/55/46
f 42/51/47 54/66/47 43/53/47
f 41/49/48 53/65/48 42/51/48
f 40/47/49 52/64/49 41/49/49
f 39/45/50 51/63/50 40/47/50
f 38/43/51 50/62/51 39/45/51
f 37/41/52 49/61/52 38/43/52
f 36/39/53 48/60/53 37/41/53
f 4/5/54 47/59/54 36/39/54
f 45/56/55 56/68/55 5/6/55
f 17/19/56 67/79/56 16/18/56
f 18/20/57 66/78/57 17/19/57
f 19/21/58 65/77/58 18/20/58
f 20/22/59 64/76/59 19/21/59
f 21/23/60 63/75/60 20/22/60
f 22/24/61 62/74/61 21/23/61
f 23/25/62 61/73/62 22/24/62
f 24/26/63 60/72/63 23/25/63
f 25/27/64 59/71/64 24/26/64
f 2/2/65 58/70/65 25/27/65
f 16/18/66 67/79/66 5/7/66
f 7/9/67 78/90/67 6/8/67
f 8/10/68 77/89/68 7/9/68
f 9/11/69 76/88/69 8/10/69
f 10/12/70 75/87/70 9/11/70
f 11/13/71 74/86/71 10/12/71
f 12/14/72 73/85/72 11/13/72
f 13/15/73 72/84/73 12/14/73
f 14/16/74 71/83/74 13/15/74
f 15/17/75 70/82/75 14/16/75
f 3/3/76 69/81/76 15/17/76
f 6/8/77 78/90/77 5/7/77
f 34/36/78 89/101/78 35/37/78
f 33/35/79 88/100/79 34/36/79
f 32/34/80 87/99/80 33/35/80
f 31/33/81 86/98/81 32/34/81
f 30/32/82 85/97/82 31/33/82
f 29/31/83 84/96/83 30/32/83
f 28/30/84 83/95/84 29/31/84
f 27/29/85 82/94/85 28/30/85
f 26/28/86 81/93/86 27/29/86
f 1/1/87 80/92/87 26/28/87
f 35/37/88 89/101/88 5/7/88
f 68/80/89 3/3/89 90/102/89
f 57/69/90 2/2/90 90/103/90
f 1/1/91 57/69/91 90/104/91
f 3/3/92 79/91/92 90/105/92
f 46/58/93 4/5/93 90/106/93
f 79/91/94 1/1/94 90/107/94
f 2/2/95 46/58/95 90/108/95
f 4/4/96 68/80/96 90/109/96
f 79/91/97 3/3/97 15/17/97
f 80/92/98 15/17/98 14/16/98
f 81/93/99 14/16/99 13/15/99
f 82/94/100 13/15/100 12/14/100
f 83/95/101 12/14/101 11/13/101
f 84/96/102 11/13/102 10/12/102
f 85/97/103 10/12/103 9/11/103
f 86/98/104 9/11/104 8/10/104
f 87/99/105 8/10/105 7/9/105
f 88/100/106 7/9/106 6/8/106
f 46/58/107 2/2/107 25/27/107
f 47/59/108 25/27/108 24/26/108
f 48/60/109 24/26/109 23/25/109
f 49/61/110 23/25/110 22/24/110
f 50/62/111 22/24/111 21/23/111
f 51/63/112 21/23/112 20/22/112
f 52/64/113 20/22/113 19/21/113
f 53/65/114 19/21/114 18/20/114
f 54/66/115 18/20/115 17/19/115
f 55/67/116 17/19/116 16/18/116
f 57/69/117 1/1/117 26/28/117
f 58/70/118 26/28/118 27/29/118
f 59/71/119 27/29/119 28/30/119
f 60/72/120 28/30/120 29/31/120
f 61/73/121 29/31/121 30/32/121
f 62/74/122 30/32/122 31/33/122
f 63/75/123 31/33/123 32/34/123
f 64/76/124 32/34/124 33/35/124
f 65/77/125 33/35/125 34/36/125
f 66/78/126 34/36/126 35/37/126
f 68/80/127 4/4/127 36/38/127
f 69/81/128 36/38/128 37/40/128
f 70/82/129 37/40/129 38/42/129
f 71/83/130 38/42/130 39/44/130
f 72/84/131 39/44/131 40/46/131
f 73/85/132 40/46/132 41/48/132
f 74/86/133 41/48/133 42/50/133
f 75/87/134 42/50/134 43/52/134
f 76/88/135 43/52/135 44/54/135
f 77/89/136 44/54/136 45/57/136
f 44/55/137 55/67/137 56/68/137
f 43/53/138 54/66/138 55/67/138
f 42/51/139 53/65/139 54/66/139
f 41/49/140 52/64/140 53/65/140
f 40/47/141 51/63/141 52/64/141
f 39/45/142 50/62/142 51/63/142
f 38/43/143 49/61/143 50/62/143
f 37/41/144 48/60/144 49/61/144
f 36/39/145 47/59/145 48/60/145
f 4/5/146 46/58/146 47/59/146
f 17/19/147 66/78/147 67/79/147
f 18/20/148 65/77/148 66/78/148
f 19/21/149 64/76/149 65/77/149
f 20/22/150 63/75/150 64/76/150
f 21/23/151 62/74/151 63/75/151
f 22/24/152 61/73/152 62/74/152
f 23/25/153 60/72/153 61/73/153
f 24/26/154 59/71/154 60/72/154
f 25/27/155 58/70/155 59/71/155
f 2/2/156 57/69/156 58/70/156
f 7/9/157 77/89/157 78/90/157
f 8/10/158 76/88/158 77/89/158
f 9/11/159 75/87/159 76/88/159
f 10/12/160 74/86/160 75/87/160
f 11/13/161 73/85/161 74/86/161
f 12/14/162 72/84/162 73/85/162
f 13/15/163 71/83/163 72/84/163
f 14/16/164 70/82/164 71/83/164
f 15/17/165 69/81/165 70/82/165
f 3/3/166 68/80/166 69/81/166
f 34/36/167 88/100/167 89/101/167
f 33/35/168 87/99/168 88/100/168
f 32/34/169 86/98/169 87/99/169
f 31/33/170 85/97/170 86/98/170
f 30/32/171 84/96/171 85/97/171
f 29/31/172 83/95/172 84/96/172
f 28/30/173 82/94/173 83/95/173
f 27/29/174 81/93/174 82/94/174
f 26/28/175 80/92/175 81/93/175
f 1/1/176 79/91/176 80/92/176
