# Blender 3.3.1
# www.blender.org
mtllib skydome.mtl
o 球
v 0.000000 191.341721 -461.939758
v 0.000000 0.000000 -500.000000
v 0.000000 -191.341721 -461.939758
v 0.000000 -461.939758 -191.341721
v -73.223312 461.939758 -176.776703
v -135.299026 353.553375 -326.640717
v -176.776703 191.341721 -426.776672
v -191.341721 0.000000 -461.939758
v -176.776703 -191.341721 -426.776672
v -135.299026 -353.553375 -326.640717
v -73.223312 -461.939758 -176.776703
v -135.299042 461.939758 -135.299026
v -250.000000 353.553375 -249.999969
v -326.640747 191.341721 -326.640717
v -353.553406 0.000000 -353.553345
v -326.640747 -191.341721 -326.640717
v -250.000000 -353.553375 -249.999969
v -135.299042 -461.939758 -135.299026
v -176.776703 461.939758 -73.223289
v -326.640717 353.553375 -135.298981
v -426.776703 191.341721 -176.776657
v -461.939789 0.000000 -191.341660
v -426.776703 -191.341721 -176.776657
v -326.640717 -353.553375 -135.298981
v -176.776703 -461.939758 -73.223289
v -191.341721 461.939758 0.000022
v -353.553345 353.553375 0.000045
v -461.939758 191.341721 0.000060
v -500.000000 0.000000 0.000075
v -461.939758 -191.341721 0.000060
v -353.553345 -353.553375 0.000045
v -191.341721 -461.939758 0.000022
v -176.776688 461.939758 73.223335
v -326.640656 353.553375 135.299072
v -426.776642 191.341721 176.776764
v -461.939728 0.000000 191.341797
v -426.776642 -191.341721 176.776764
v -326.640656 -353.553375 135.299072
v -176.776688 -461.939758 73.223335
v -135.298996 461.939758 135.299057
v -249.999908 353.553375 250.000031
v -326.640656 191.341721 326.640778
v -353.553284 0.000000 353.553467
v -326.640656 -191.341721 326.640778
v -249.999908 -353.553375 250.000031
v -135.298996 -461.939758 135.299057
v -73.223267 461.939758 176.776718
v -135.298904 353.553375 326.640717
v -176.776581 191.341721 426.776703
v -191.341568 0.000000 461.939819
v -176.776581 -191.341721 426.776703
v -135.298904 -353.553375 326.640717
v -73.223267 -461.939758 176.776718
v 0.000060 461.939758 191.341721
v 0.000112 353.553375 353.553314
v 0.000119 191.341721 461.939728
v 0.000179 0.000000 500.000000
v 0.000119 -191.341721 461.939728
v 0.000112 -353.553375 353.553314
v 0.000060 -461.939758 191.341721
v 0.000000 -500.000000 0.000000
v 0.000000 500.000000 0.000000
v 73.223366 461.939758 176.776672
v 135.299118 353.553375 326.640625
v 176.776794 191.341721 426.776581
v 191.341888 0.000000 461.939697
v 176.776794 -191.341721 426.776581
v 135.299118 -353.553375 326.640625
v 73.223366 -461.939758 176.776672
v 135.299088 461.939758 135.298981
v 250.000061 353.553375 249.999847
v 326.640778 191.341721 326.640594
v 353.553528 0.000000 353.553223
v 326.640778 -191.341721 326.640594
v 250.000061 -353.553375 249.999847
v 135.299088 -461.939758 135.298981
v 176.776733 461.939758 73.223236
v 326.640717 353.553375 135.298843
v 426.776703 191.341721 176.776535
v 461.939850 0.000000 191.341492
v 426.776703 -191.341721 176.776535
v 326.640717 -353.553375 135.298843
v 176.776733 -461.939758 73.223236
v 191.341721 461.939758 -0.000089
v 353.553284 353.553375 -0.000164
v 461.939697 191.341721 -0.000179
v 499.999969 0.000000 -0.000253
v 461.939697 -191.341721 -0.000179
v 353.553284 -353.553375 -0.000164
v 191.341721 -461.939758 -0.000089
v 176.776672 461.939758 -73.223396
v 326.640564 353.553375 -135.299149
v 426.776550 191.341721 -176.776840
v 461.939636 0.000000 -191.341949
v 426.776550 -191.341721 -176.776840
v 326.640564 -353.553375 -135.299149
v 176.776672 -461.939758 -73.223396
v 135.298965 461.939758 -135.299118
v 249.999786 353.553375 -250.000061
v 326.640533 191.341721 -326.640839
v 353.553162 0.000000 -353.553558
v 326.640533 -191.341721 -326.640839
v 249.999786 -353.553375 -250.000061
v 135.298965 -461.939758 -135.299118
v 73.223206 461.939758 -176.776749
v 135.298782 353.553375 -326.640717
v 176.776459 191.341721 -426.776703
v 191.341446 0.000000 -461.939880
v 176.776459 -191.341721 -426.776703
v 135.298782 -353.553375 -326.640717
v 73.223206 -461.939758 -176.776749
v -0.000119 461.939758 -191.341721
v -0.000224 353.553375 -353.553284
v -0.000224 -353.553375 -353.553284
vn -0.0000 0.3744 0.9273
vn 0.3549 0.3744 0.8567
vn 0.3827 -0.0000 0.9239
vn -0.0000 -0.0000 1.0000
vn -0.0000 -0.3744 0.9273
vn 0.3549 -0.3744 0.8567
vn 0.2751 -0.6952 0.6641
vn -0.0000 -0.6952 0.7189
vn -0.0000 -0.9152 0.4031
vn 0.1543 -0.9152 0.3724
vn -0.0000 -1.0000 -0.0000
vn -0.0000 1.0000 -0.0000
vn 0.1543 0.9152 0.3724
vn -0.0000 0.9152 0.4031
vn -0.0000 0.6952 0.7189
vn 0.2751 0.6952 0.6641
vn 0.2850 0.9152 0.2850
vn 0.5083 0.6952 0.5083
vn 0.6557 0.3744 0.6557
vn 0.7071 -0.0000 0.7071
vn 0.6557 -0.3744 0.6557
vn 0.5083 -0.6952 0.5083
vn 0.2850 -0.9152 0.2850
vn 0.6641 -0.6952 0.2751
vn 0.3724 -0.9152 0.1543
vn 0.3724 0.9152 0.1543
vn 0.6641 0.6952 0.2751
vn 0.8567 0.3744 0.3549
vn 0.9239 -0.0000 0.3827
vn 0.8567 -0.3744 0.3549
vn 0.4031 0.9152 -0.0000
vn 0.7189 0.6952 -0.0000
vn 0.9273 0.3744 -0.0000
vn 1.0000 -0.0000 -0.0000
vn 0.9273 -0.3744 -0.0000
vn 0.7189 -0.6952 -0.0000
vn 0.4031 -0.9152 -0.0000
vn 0.3724 -0.9152 -0.1543
vn 0.3724 0.9152 -0.1543
vn 0.6641 0.6952 -0.2751
vn 0.8567 0.3744 -0.3549
vn 0.9239 -0.0000 -0.3827
vn 0.8567 -0.3744 -0.3549
vn 0.6641 -0.6952 -0.2751
vn 0.5083 0.6952 -0.5083
vn 0.6557 0.3744 -0.6557
vn 0.7071 -0.0000 -0.7071
vn 0.6557 -0.3744 -0.6557
vn 0.5083 -0.6952 -0.5083
vn 0.2850 -0.9152 -0.2850
vn 0.2850 0.9152 -0.2850
vn 0.1543 0.9152 -0.3724
vn 0.2751 0.6952 -0.6641
vn 0.3549 0.3744 -0.8567
vn 0.3827 -0.0000 -0.9239
vn 0.3549 -0.3744 -0.8567
vn 0.2751 -0.6952 -0.6641
vn 0.1543 -0.9152 -0.3724
vn -0.0000 0.3744 -0.9273
vn -0.0000 -0.0000 -1.0000
vn -0.0000 -0.3744 -0.9273
vn -0.0000 -0.6952 -0.7189
vn -0.0000 -0.9152 -0.4031
vn -0.0000 0.9152 -0.4031
vn -0.0000 0.6952 -0.7189
vn -0.1543 0.9152 -0.3724
vn -0.2751 0.6952 -0.6641
vn -0.3549 0.3744 -0.8567
vn -0.3827 -0.0000 -0.9239
vn -0.3549 -0.3744 -0.8567
vn -0.2751 -0.6952 -0.6641
vn -0.1543 -0.9152 -0.3724
vn -0.7071 -0.0000 -0.7071
vn -0.6557 -0.3744 -0.6557
vn -0.5083 -0.6952 -0.5083
vn -0.2850 -0.9152 -0.2850
vn -0.2850 0.9152 -0.2850
vn -0.5083 0.6952 -0.5083
vn -0.6557 0.3744 -0.6557
vn -0.3724 0.9152 -0.1543
vn -0.6641 0.6952 -0.2751
vn -0.8567 0.3744 -0.3549
vn -0.9239 -0.0000 -0.3827
vn -0.8567 -0.3744 -0.3549
vn -0.6641 -0.6952 -0.2751
vn -0.3724 -0.9152 -0.1543
vn -0.9273 -0.3744 -0.0000
vn -0.7189 -0.6952 -0.0000
vn -0.4031 -0.9152 -0.0000
vn -0.4031 0.9152 -0.0000
vn -0.7189 0.6952 -0.0000
vn -0.9273 0.3744 -0.0000
vn -1.0000 -0.0000 -0.0000
vn -0.3724 0.9152 0.1543
vn -0.6641 0.6952 0.2751
vn -0.8567 0.3744 0.3549
vn -0.9239 -0.0000 0.3827
vn -0.8567 -0.3744 0.3549
vn -0.6641 -0.6952 0.2751
vn -0.3724 -0.9152 0.1543
vn -0.5083 -0.6952 0.5083
vn -0.2850 -0.9152 0.2850
vn -0.2850 0.9152 0.2850
vn -0.5083 0.6952 0.5083
vn -0.6557 0.3744 0.6557
vn -0.7071 -0.0000 0.7071
vn -0.6557 -0.3744 0.6557
vn -0.1543 0.9152 0.3724
vn -0.2751 0.6952 0.6641
vn -0.3549 0.3744 0.8567
vn -0.3827 -0.0000 0.9239
vn -0.3549 -0.3744 0.8567
vn -0.2751 -0.6952 0.6641
vn -0.1543 -0.9152 0.3724
vt 0.750000 0.625000
vt 0.750000 0.500000
vt 0.750000 0.375000
vt 0.750000 0.125000
vt 0.687500 0.875000
vt 0.687500 0.750000
vt 0.687500 0.625000
vt 0.687500 0.500000
vt 0.687500 0.375000
vt 0.687500 0.250000
vt 0.687500 0.125000
vt 0.625000 0.875000
vt 0.625000 0.750000
vt 0.625000 0.625000
vt 0.625000 0.500000
vt 0.625000 0.375000
vt 0.625000 0.250000
vt 0.625000 0.125000
vt 0.562500 0.875000
vt 0.562500 0.750000
vt 0.562500 0.625000
vt 0.562500 0.500000
vt 0.562500 0.375000
vt 0.562500 0.250000
vt 0.562500 0.125000
vt 0.500000 0.875000
vt 0.500000 0.750000
vt 0.500000 0.625000
vt 0.500000 0.500000
vt 0.500000 0.375000
vt 0.500000 0.250000
vt 0.500000 0.125000
vt 0.437500 0.875000
vt 0.437500 0.750000
vt 0.437500 0.625000
vt 0.437500 0.500000
vt 0.437500 0.375000
vt 0.437500 0.250000
vt 0.437500 0.125000
vt 0.375000 0.875000
vt 0.375000 0.750000
vt 0.375000 0.625000
vt 0.375000 0.500000
vt 0.375000 0.375000
vt 0.375000 0.250000
vt 0.375000 0.125000
vt 0.312500 0.875000
vt 0.312500 0.750000
vt 0.312500 0.625000
vt 0.312500 0.500000
vt 0.312500 0.375000
vt 0.312500 0.250000
vt 0.312500 0.125000
vt 0.250000 0.875000
vt 0.250000 0.750000
vt 0.250000 0.625000
vt 0.250000 0.500000
vt 0.250000 0.375000
vt 0.250000 0.250000
vt 0.250000 0.125000
vt 0.718750 0.000000
vt 0.656250 0.000000
vt 0.593750 0.000000
vt 0.531250 0.000000
vt 0.468750 0.000000
vt 0.406250 0.000000
vt 0.343750 0.000000
vt 0.281250 0.000000
vt 0.218750 0.000000
vt 0.156250 0.000000
vt 0.093750 0.000000
vt 0.031250 0.000000
vt 0.968750 0.000000
vt 0.906250 0.000000
vt 0.843750 0.000000
vt 0.781250 0.000000
vt 0.718750 1.000000
vt 0.656250 1.000000
vt 0.593750 1.000000
vt 0.531250 1.000000
vt 0.468750 1.000000
vt 0.406250 1.000000
vt 0.343750 1.000000
vt 0.281250 1.000000
vt 0.218750 1.000000
vt 0.156250 1.000000
vt 0.093750 1.000000
vt 0.031250 1.000000
vt 0.968750 1.000000
vt 0.906250 1.000000
vt 0.843750 1.000000
vt 0.781250 1.000000
vt 0.187500 0.875000
vt 0.187500 0.750000
vt 0.187500 0.625000
vt 0.187500 0.500000
vt 0.187500 0.375000
vt 0.187500 0.250000
vt 0.187500 0.125000
vt 0.125000 0.875000
vt 0.125000 0.750000
vt 0.125000 0.625000
vt 0.125000 0.500000
vt 0.125000 0.375000
vt 0.125000 0.250000
vt 0.125000 0.125000
vt 0.062500 0.875000
vt 0.062500 0.750000
vt 0.062500 0.625000
vt 0.062500 0.500000
vt 0.062500 0.375000
vt 0.062500 0.250000
vt 0.062500 0.125000
vt 0.000000 0.875000
vt 1.000000 0.875000
vt 0.000000 0.750000
vt 1.000000 0.750000
vt 0.000000 0.625000
vt 1.000000 0.625000
vt 0.000000 0.500000
vt 1.000000 0.500000
vt 0.000000 0.375000
vt 1.000000 0.375000
vt 0.000000 0.250000
vt 1.000000 0.250000
vt 0.000000 0.125000
vt 1.000000 0.125000
vt 0.937500 0.875000
vt 0.937500 0.750000
vt 0.937500 0.625000
vt 0.937500 0.500000
vt 0.937500 0.375000
vt 0.937500 0.250000
vt 0.937500 0.125000
vt 0.875000 0.875000
vt 0.875000 0.750000
vt 0.875000 0.625000
vt 0.875000 0.500000
vt 0.875000 0.375000
vt 0.875000 0.250000
vt 0.875000 0.125000
vt 0.812500 0.875000
vt 0.812500 0.750000
vt 0.812500 0.625000
vt 0.812500 0.500000
vt 0.812500 0.375000
vt 0.812500 0.250000
vt 0.812500 0.125000
vt 0.750000 0.875000
vt 0.750000 0.750000
vt 0.750000 0.250000
s 1
usemtl マテリアル
f 3/3/1 2/2/4 8/8/3 9/9/2
f 1/1/5 113/150/8 6/6/7 7/7/6
f 112/149/9 62/77/11 5/5/10
f 61/61/12 4/4/14 11/11/13
f 114/151/15 3/3/1 9/9/2 10/10/16
f 2/2/4 1/1/5 7/7/6 8/8/3
f 113/150/8 112/149/9 5/5/10 6/6/7
f 4/4/14 114/151/15 10/10/16 11/11/13
f 61/62/12 11/11/13 18/18/17
f 10/10/16 9/9/2 16/16/19 17/17/18
f 8/8/3 7/7/6 14/14/21 15/15/20
f 6/6/7 5/5/10 12/12/23 13/13/22
f 11/11/13 10/10/16 17/17/18 18/18/17
f 9/9/2 8/8/3 15/15/20 16/16/19
f 7/7/6 6/6/7 13/13/22 14/14/21
f 5/5/10 62/78/11 12/12/23
f 13/13/22 12/12/23 19/19/25 20/20/24
f 18/18/17 17/17/18 24/24/27 25/25/26
f 16/16/19 15/15/20 22/22/29 23/23/28
f 14/14/21 13/13/22 20/20/24 21/21/30
f 12/12/23 62/79/11 19/19/25
f 61/63/12 18/18/17 25/25/26
f 17/17/18 16/16/19 23/23/28 24/24/27
f 15/15/20 14/14/21 21/21/30 22/22/29
f 25/25/26 24/24/27 31/31/32 32/32/31
f 23/23/28 22/22/29 29/29/34 30/30/33
f 21/21/30 20/20/24 27/27/36 28/28/35
f 19/19/25 62/80/11 26/26/37
f 61/64/12 25/25/26 32/32/31
f 24/24/27 23/23/28 30/30/33 31/31/32
f 22/22/29 21/21/30 28/28/35 29/29/34
f 20/20/24 19/19/25 26/26/37 27/27/36
f 26/26/37 62/81/11 33/33/38
f 61/65/12 32/32/31 39/39/39
f 31/31/32 30/30/33 37/37/41 38/38/40
f 29/29/34 28/28/35 35/35/43 36/36/42
f 27/27/36 26/26/37 33/33/38 34/34/44
f 32/32/31 31/31/32 38/38/40 39/39/39
f 30/30/33 29/29/34 36/36/42 37/37/41
f 28/28/35 27/27/36 34/34/44 35/35/43
f 38/38/40 37/37/41 44/44/46 45/45/45
f 36/36/42 35/35/43 42/42/48 43/43/47
f 34/34/44 33/33/38 40/40/50 41/41/49
f 39/39/39 38/38/40 45/45/45 46/46/51
f 37/37/41 36/36/42 43/43/47 44/44/46
f 35/35/43 34/34/44 41/41/49 42/42/48
f 33/33/38 62/82/11 40/40/50
f 61/66/12 39/39/39 46/46/51
f 46/46/51 45/45/45 52/52/53 53/53/52
f 44/44/46 43/43/47 50/50/55 51/51/54
f 42/42/48 41/41/49 48/48/57 49/49/56
f 40/40/50 62/83/11 47/47/58
f 61/67/12 46/46/51 53/53/52
f 45/45/45 44/44/46 51/51/54 52/52/53
f 43/43/47 42/42/48 49/49/56 50/50/55
f 41/41/49 40/40/50 47/47/58 48/48/57
f 51/51/54 50/50/55 57/57/60 58/58/59
f 49/49/56 48/48/57 55/55/62 56/56/61
f 47/47/58 62/84/11 54/54/63
f 61/68/12 53/53/52 60/60/64
f 52/52/53 51/51/54 58/58/59 59/59/65
f 50/50/55 49/49/56 56/56/61 57/57/60
f 48/48/57 47/47/58 54/54/63 55/55/62
f 53/53/52 52/52/53 59/59/65 60/60/64
f 61/69/12 60/60/64 69/99/66
f 59/59/65 58/58/59 67/97/68 68/98/67
f 57/57/60 56/56/61 65/95/70 66/96/69
f 55/55/62 54/54/63 63/93/72 64/94/71
f 60/60/64 59/59/65 68/98/67 69/99/66
f 58/58/59 57/57/60 66/96/69 67/97/68
f 56/56/61 55/55/62 64/94/71 65/95/70
f 54/54/63 62/85/11 63/93/72
f 66/96/69 65/95/70 72/102/74 73/103/73
f 64/94/71 63/93/72 70/100/76 71/101/75
f 69/99/66 68/98/67 75/105/78 76/106/77
f 67/97/68 66/96/69 73/103/73 74/104/79
f 65/95/70 64/94/71 71/101/75 72/102/74
f 63/93/72 62/86/11 70/100/76
f 61/70/12 69/99/66 76/106/77
f 68/98/67 67/97/68 74/104/79 75/105/78
f 76/106/77 75/105/78 82/112/81 83/113/80
f 74/104/79 73/103/73 80/110/83 81/111/82
f 72/102/74 71/101/75 78/108/85 79/109/84
f 70/100/76 62/87/11 77/107/86
f 61/71/12 76/106/77 83/113/80
f 75/105/78 74/104/79 81/111/82 82/112/81
f 73/103/73 72/102/74 79/109/84 80/110/83
f 71/101/75 70/100/76 77/107/86 78/108/85
f 79/109/84 78/108/85 85/116/88 86/118/87
f 77/107/86 62/88/11 84/114/89
f 61/72/12 83/113/80 90/126/90
f 82/112/81 81/111/82 88/122/92 89/124/91
f 80/110/83 79/109/84 86/118/87 87/120/93
f 78/108/85 77/107/86 84/114/89 85/116/88
f 83/113/80 82/112/81 89/124/91 90/126/90
f 81/111/82 80/110/83 87/120/93 88/122/92
f 61/73/12 90/127/90 97/134/94
f 89/125/91 88/123/92 95/132/96 96/133/95
f 87/121/93 86/119/87 93/130/98 94/131/97
f 85/117/88 84/115/89 91/128/100 92/129/99
f 90/127/90 89/125/91 96/133/95 97/134/94
f 88/123/92 87/121/93 94/131/97 95/132/96
f 86/119/87 85/117/88 92/129/99 93/130/98
f 84/115/89 62/89/11 91/128/100
f 92/129/99 91/128/100 98/135/102 99/136/101
f 97/134/94 96/133/95 103/140/104 104/141/103
f 95/132/96 94/131/97 101/138/106 102/139/105
f 93/130/98 92/129/99 99/136/101 100/137/107
f 91/128/100 62/90/11 98/135/102
f 61/74/12 97/134/94 104/141/103
f 96/133/95 95/132/96 102/139/105 103/140/104
f 94/131/97 93/130/98 100/137/107 101/138/106
f 104/141/103 103/140/104 110/147/109 111/148/108
f 102/139/105 101/138/106 108/145/111 109/146/110
f 100/137/107 99/136/101 106/143/113 107/144/112
f 98/135/102 62/91/11 105/142/114
f 61/75/12 104/141/103 111/148/108
f 103/140/104 102/139/105 109/146/110 110/147/109
f 101/138/106 100/137/107 107/144/112 108/145/111
f 99/136/101 98/135/102 105/142/114 106/143/113
f 105/142/114 62/92/11 112/149/9
f 61/76/12 111/148/108 4/4/14
f 110/147/109 109/146/110 3/3/1 114/151/15
f 108/145/111 107/144/112 1/1/5 2/2/4
f 106/143/113 105/142/114 112/149/9 113/150/8
f 111/148/108 110/147/109 114/151/15 4/4/14
f 109/146/110 108/145/111 2/2/4 3/3/1
f 107/144/112 106/143/113 113/150/8 1/1/5
